<svg width="187" height="29" viewBox="0 0 187 29" fill="none" xmlns="http://www.w3.org/2000/svg">
<path fill-rule="evenodd" clip-rule="evenodd" d="M183.69 1.48883H3.28618V1.62805L0.0356866 2.53771L3.28618 3.66656V3.67801L0 5.25438L3.11464 6.75797L0 8.25206L3.28618 9.83847V10.1394L0 11.7158L3.28618 13.3022V13.6032L0 15.1796L3.28618 16.766V17.0971L0 18.6735L3.28618 20.2599V20.5609L0 22.1373L3.28618 23.7237V24.0247L0 25.6011L3.28618 27.1875V27.2944H3.50759L3.60489 27.3413L3.60497 27.2944H183.389L183.389 27.3023L183.418 27.2944H183.69V27.2182L186.964 26.3018L183.7 25.1682L187 23.5852L183.885 22.0816L187 20.5875L183.69 18.9895V18.7118L187 17.1238L183.69 15.5257V15.248L187 13.66L183.69 12.062V11.754L187 10.166L183.69 8.56797V8.2903L187 6.70234L183.69 5.10428V4.82656L187 3.2386L183.69 1.64054V1.48883Z" fill="#FFD4E3"/>
<path d="M8.16061 8.13876L19.4981 8.34652L13.6135 16.4265L8.16061 8.13876Z" fill="#FFFDDE" fill-opacity="0.5"/>
<path d="M25.1601 15.5014L34.5794 20.7649L24.4009 24.9324L25.1601 15.5014Z" fill="#FFFDDE" fill-opacity="0.5"/>
<path d="M32.6691 2.40609L42.0885 7.66951L31.91 11.837L32.6691 2.40609Z" fill="#FFFDDE" fill-opacity="0.5"/>
<path d="M45.7677 16.7976L55.1871 22.0611L45.0086 26.2286L45.7677 16.7976Z" fill="#FFFDDE" fill-opacity="0.5"/>
<path d="M54.1032 4.88741L63.5226 10.1508L53.3441 14.3183L54.1032 4.88741Z" fill="#FFFDDE" fill-opacity="0.5"/>
<path d="M63.4494 17.1159L74.6956 15.9011L70.3347 24.6264L63.4494 17.1159Z" fill="#FFFDDE" fill-opacity="0.5"/>
<path d="M75.1554 7.02262L86.4017 5.8078L82.0408 14.5331L75.1554 7.02262Z" fill="#FFFDDE" fill-opacity="0.5"/>
<path d="M91.0327 9.53008L100.418 14.835L90.2136 18.9575L91.0327 9.53008Z" fill="#FFFDDE" fill-opacity="0.5"/>
<path d="M106.513 4.36516L115.899 9.67009L105.694 13.7926L106.513 4.36516Z" fill="#FFFDDE" fill-opacity="0.5"/>
<path d="M122.924 16.018L117.682 24.4L111.594 16.4257L122.924 16.018Z" fill="#FFFDDE" fill-opacity="0.5"/>
<path d="M141.381 4.60395L136.14 12.986L130.051 5.01172L141.381 4.60395Z" fill="#FFFDDE" fill-opacity="0.5"/>
<path d="M155.683 19.555L145.075 22.8968L146.907 13.5688L155.683 19.555Z" fill="#FFFDDE" fill-opacity="0.5"/>
<path d="M167.3 9.40843L156.404 12.0293L159.129 2.85407L167.3 9.40843Z" fill="#FFFDDE" fill-opacity="0.5"/>
<path d="M170.496 21.8958L163.1 14.731L174.242 12.9742L170.496 21.8958Z" fill="#FFFDDE" fill-opacity="0.5"/>
</svg>
