<svg width="274" height="49" viewBox="0 0 274 49" fill="none" xmlns="http://www.w3.org/2000/svg">
<path d="M0 14L26.5 14.5L35 26L23 40.129H0L6 26L0 14Z" fill="white"/>
<path d="M274 11L248 11.5L239 22.9407L249 37H274L268 22.9407L274 11Z" fill="white"/>
<path d="M257 1L257.386 1.31755L258.058 0.5H257V1ZM137 1V0.5V1ZM239.078 22.7971L238.692 22.4796L238.449 22.7751L238.67 23.0869L239.078 22.7971ZM257 48V48.5H257.969L257.407 47.7102L257 48ZM137 48V47.5V48ZM17 48L16.6138 47.6825L15.9416 48.5H17L17 48ZM34.9221 26.2029L35.3083 26.5205L35.5513 26.225L35.3296 25.9132L34.9221 26.2029ZM17 1.00003L17 0.500031L16.0309 0.500031L16.5925 1.28979L17 1.00003ZM257 0.5H137V1.5H257V0.5ZM239.464 23.1147L257.386 1.31755L256.614 0.682447L238.692 22.4796L239.464 23.1147ZM257.407 47.7102L239.485 22.5073L238.67 23.0869L256.593 48.2898L257.407 47.7102ZM137 48.5H257V47.5H137V48.5ZM17 48.5L137 48.5V47.5L17 47.5L17 48.5ZM34.5359 25.8854L16.6138 47.6825L17.3862 48.3176L35.3083 26.5205L34.5359 25.8854ZM16.5925 1.28979L34.5146 26.4927L35.3296 25.9132L17.4075 0.710268L16.5925 1.28979ZM137 0.5L17 0.500031L17 1.50003L137 1.5V0.5Z" fill="white"/>
</svg>
