<svg width="14" height="14" viewBox="0 0 14 14" fill="none" xmlns="http://www.w3.org/2000/svg">
<path fill-rule="evenodd" clip-rule="evenodd" d="M3.60764 11.8664C4.10744 11.8664 4.51414 12.2724 4.51414 12.7722C4.51414 13.272 4.10744 13.6787 3.60764 13.6787C3.10783 13.6787 2.70183 13.272 2.70183 12.7722C2.70183 12.2724 3.10783 11.8664 3.60764 11.8664ZM11.5039 11.8664C12.0044 11.8664 12.4111 12.2724 12.4111 12.7722C12.4111 13.272 12.0044 13.6787 11.5039 13.6787C11.0041 13.6787 10.5981 13.272 10.5981 12.7722C10.5981 12.2724 11.0041 11.8664 11.5039 11.8664ZM0.614564 0.00664095L2.07057 0.258642C2.30507 0.299942 2.48357 0.494543 2.50387 0.732544L2.66837 2.69325L3.28007 2.69351C3.37989 2.69356 3.47865 2.6936 3.57636 2.69365L4.69938 2.69418C4.78889 2.69423 4.87741 2.69427 4.96493 2.69432L6.20491 2.695C6.28281 2.69504 6.35978 2.69509 6.43582 2.69513L7.30476 2.69569C7.3736 2.69573 7.44156 2.69578 7.50865 2.69583L8.27292 2.69639C8.33327 2.69644 8.39279 2.69649 8.4515 2.69653L9.11787 2.69711C9.17028 2.69715 9.22192 2.6972 9.27281 2.69725L9.71079 2.69768C9.75726 2.69773 9.80301 2.69778 9.84805 2.69783L10.3552 2.69842C10.3948 2.69847 10.4337 2.69852 10.4719 2.69857L10.9002 2.69917C10.9334 2.69922 10.966 2.69927 10.998 2.69932L11.2701 2.69977C11.2986 2.69982 11.3266 2.69987 11.354 2.69992L11.6572 2.70054C11.6804 2.70059 11.703 2.70064 11.7252 2.70069L11.9118 2.70116C11.9311 2.70121 11.95 2.70126 11.9684 2.70132L12.1684 2.70195C12.1834 2.702 12.198 2.70205 12.2122 2.70211L12.3297 2.70258C12.3416 2.70264 12.3532 2.70269 12.3644 2.70275L12.4832 2.70339C12.4918 2.70345 12.5002 2.7035 12.5082 2.70356L12.573 2.70405C12.5793 2.7041 12.5855 2.70416 12.5914 2.70421L12.638 2.70471C12.6425 2.70476 12.6468 2.70482 12.6509 2.70488L12.6826 2.70538C12.6856 2.70543 12.6884 2.70549 12.6911 2.70555L12.7111 2.70605C12.713 2.70611 12.7147 2.70617 12.7163 2.70622L12.7308 2.70691C12.7317 2.70697 12.7325 2.70702 12.7333 2.70708C12.7401 2.70772 12.7411 2.70783 12.7421 2.70795C13.132 2.76465 13.475 2.96835 13.7088 3.28195C13.9426 3.59486 14.0406 3.98056 13.9846 4.36696L13.3203 8.95758C13.195 9.83118 12.4362 10.4899 11.5542 10.4899H3.90948C2.98757 10.4899 2.20707 9.77028 2.13217 8.84978L1.49097 1.22395L0.436063 1.04194C0.149762 0.991545 -0.0413386 0.720644 0.00766157 0.434343C0.0580618 0.148042 0.334563 -0.0381592 0.614564 0.00664095ZM3.13964 3.74349L2.75657 3.74326L3.17867 8.76367C3.20947 9.15008 3.52518 9.43988 3.91088 9.43988H11.5528C11.9175 9.43988 12.229 9.16828 12.2808 8.80778L12.9458 4.21646C12.9612 4.10726 12.9339 3.99806 12.8674 3.90986C12.8016 3.82096 12.705 3.76356 12.5958 3.74816C12.5908 3.74835 12.5787 3.74853 12.5599 3.74869L12.4837 3.74912C12.4678 3.74919 12.4503 3.74925 12.4312 3.7493L12.0347 3.74991C12.0012 3.74993 11.9664 3.74995 11.9304 3.74997L10.998 3.74993C10.946 3.74991 10.8929 3.74989 10.839 3.74987L9.77492 3.74922C9.71116 3.74917 9.64671 3.74913 9.58161 3.74908L8.97951 3.74859C8.91093 3.74854 8.84183 3.74848 8.77226 3.74842L8.13451 3.74786C8.06249 3.74779 7.99012 3.74773 7.91744 3.74766L7.47813 3.74726C7.40442 3.74719 7.3305 3.74712 7.2564 3.74705L6.58601 3.74642C6.51126 3.74635 6.43646 3.74628 6.36166 3.74621L5.91321 3.7458C5.83858 3.74573 5.76403 3.74566 5.68961 3.74559L5.24497 3.74519C5.17123 3.74512 5.0977 3.74506 5.02443 3.74499L4.37307 3.74443C4.30173 3.74437 4.23076 3.74431 4.16023 3.74426L3.33708 3.74363C3.27065 3.74358 3.20482 3.74354 3.13964 3.74349ZM10.4285 5.28067C10.7183 5.28067 10.9535 5.51587 10.9535 5.80567C10.9535 6.09547 10.7183 6.33068 10.4285 6.33068H8.48812C8.19762 6.33068 7.96312 6.09547 7.96312 5.80567C7.96312 5.51587 8.19762 5.28067 8.48812 5.28067H10.4285Z" fill="#1FB085"/>
</svg>
